<svg id="Capa_1" enable-background="new 0 0 497 497" height="512" viewBox="0 0 497 497" width="512" xmlns="http://www.w3.org/2000/svg"><g><path d="m46.82 482-31.82-31.82 31.82-31.82 26.334 5.121 5.486 26.7z" fill="#3193e0"/><path d="m78.64 450.181-31.82-31.821 21.213-21.213 26.334 5.121 5.486 26.699z" fill="#3b7bc1"/><path d="m99.853 428.967-31.82-31.82 21.213-21.213 26.334 5.121 5.486 26.699z" fill="#3193e0"/><path d="m121.066 407.754-31.82-31.82 21.213-21.213 26.335 5.121 5.486 26.699z" fill="#3b7bc1"/><path d="m142.28 386.541-31.821-31.82 21.214-21.213 26.334 5.121 5.486 26.699z" fill="#3193e0"/><path d="m163.493 365.328-31.82-31.82 21.213-21.214 26.334 5.121 5.486 26.7z" fill="#fffacc"/><path d="m57.426 471.393-21.213-21.213-21.213 21.213 21.213 21.213c5.858 5.858 15.355 5.858 21.213 0 5.858-5.857 5.858-15.355 0-21.213z" fill="#504b83"/><path d="m36.213 471.393c5.858-5.858 5.858-15.355 0-21.213l-10.607-10.607c-5.858-5.858-15.355-5.858-21.213 0s-5.858 15.355 0 21.213l10.607 10.607c5.858 5.858 15.355 5.858 21.213 0z" fill="#4663a2"/><path d="m446.432 230.88c27.891-27.891 45.519-63.153 49.636-99.29 4.409-38.696-6.923-73.766-31.907-98.75-24.984-24.984-60.054-36.316-98.75-31.907-36.137 4.117-71.399 21.745-99.29 49.636-21.043 21.043-36.239 46.282-44.203 72.926-.022-.022-46.258 151.136-46.258 151.136-4.309 14.086-12.009 26.899-22.424 37.315 0 0 31.82 31.82 31.82 31.82 10.415-10.415 23.228-18.115 37.314-22.424l151.164-46.239c26.62-7.987 51.857-23.182 72.898-44.223zm-245.634 65.687-.365-.365 24.914-81.453c5.478 12.588 13.195 24.01 23.044 33.859s21.27 17.566 33.857 23.044z" fill="#fcca5c"/><path d="m442.948 54.052-173.343 173.343c38.016 38.015 107.823 30.063 155.614-17.728s55.744-117.599 17.729-155.615z" fill="#fff066"/><path d="m404.006 188.453c47.791-47.791 65.26-108.083 38.942-134.401-38.016-38.016-107.823-30.063-155.614 17.728s-55.744 117.599-17.728 155.614c26.318 26.319 86.609 8.85 134.4-38.941z" fill="#fffacc"/></g></svg>